<svg width="790" height="677" viewBox="0 0 790 677" fill="none" xmlns="http://www.w3.org/2000/svg">
<path d="M494.709 459.086H298.178C257.575 459.086 224.706 426.377 224.706 385.832V385.718C224.706 378.563 230.506 372.657 237.785 372.657H555.215C562.38 372.657 568.294 378.563 568.294 385.832V385.718C568.18 426.263 535.311 459.086 494.709 459.086Z" fill="#EAA772"/>
<g opacity="0.25">
<path opacity="0.25" d="M298.078 384.279C298.078 376.984 303.917 371.057 311.243 371.057H236.832C229.62 371.057 223.667 376.984 223.667 384.165V384.279C223.667 424.972 256.751 457.8 297.62 457.8H372.032C331.163 457.8 298.078 424.972 298.078 384.279Z" fill="#EAA772"/>
<path opacity="0.25" d="M223.896 384.963H569.05C567.79 378.124 562.524 372.881 556.228 372.881H236.832C230.536 372.767 225.27 378.01 223.896 384.963Z" fill="#EAA772"/>
</g>
<path d="M494.709 459.086H298.178C257.575 459.086 224.706 426.377 224.706 385.832V385.718C224.706 378.563 230.506 372.657 237.785 372.657H555.215C562.38 372.657 568.294 378.563 568.294 385.832V385.718C568.18 426.263 535.311 459.086 494.709 459.086Z" stroke="#442F2F" stroke-width="8" stroke-miterlimit="10" stroke-linecap="round" stroke-linejoin="round"/>
<path d="M410.152 109.914H381.824C294.789 109.914 224.706 159.121 224.706 218.469V218.353C224.706 231.145 239.382 241.286 258.041 241.286H534.049C552.708 241.286 568.294 231.145 568.294 218.353C568.18 159.121 497.187 109.914 410.152 109.914Z" fill="#EAA772"/>
<path d="M410.152 109.914H381.824C294.789 109.914 224.706 159.121 224.706 218.469V218.353C224.706 231.145 239.382 241.286 258.041 241.286H534.049C552.708 241.286 568.294 231.145 568.294 218.353C568.18 159.121 497.187 109.914 410.152 109.914Z" fill="#EAA772"/>
<g opacity="0.3">
<path opacity="0.3" d="M433.621 112.764C426.066 111.966 418.281 111.624 410.267 111.624H381.762C294.186 111.624 223.667 160.296 223.667 218.999C223.667 231.538 238.435 241.568 257.209 241.568H302.199V222.305C312.846 163.944 359.553 120.287 433.621 112.764Z" fill="#EAA772"/>
</g>
<path d="M410.152 109.914H381.824C294.789 109.914 224.706 159.121 224.706 218.469V218.353C224.706 231.145 239.382 241.286 258.041 241.286H534.049C552.708 241.286 568.294 231.145 568.294 218.353C568.18 159.121 497.187 109.914 410.152 109.914Z" stroke="#442F2F" stroke-width="8" stroke-miterlimit="10" stroke-linecap="round" stroke-linejoin="round"/>
<path d="M575.235 334.629C575.235 355.626 558.619 372.657 538.134 372.657H254.866C234.381 372.657 217.765 355.626 217.765 334.629C217.765 313.631 234.381 296.6 254.866 296.6H538.134C558.619 296.6 575.235 313.631 575.235 334.629Z" fill="#5B3E40"/>
<g opacity="0.6">
<path opacity="0.6" d="M236.145 345.41C237.599 345.41 238.778 344.236 238.778 342.788C238.778 341.341 237.599 340.167 236.145 340.167C234.691 340.167 233.512 341.341 233.512 342.788C233.512 344.236 234.691 345.41 236.145 345.41Z" fill="#442F2F"/>
<path opacity="0.6" d="M253.889 357.151C255.343 357.151 256.522 355.976 256.522 354.529C256.522 353.081 255.343 351.907 253.889 351.907C252.436 351.907 251.256 353.081 251.256 354.529C251.256 355.976 252.436 357.151 253.889 357.151Z" fill="#442F2F"/>
<path opacity="0.6" d="M242.671 357.151C244.124 357.151 245.304 355.976 245.304 354.529C245.304 353.081 244.124 351.907 242.671 351.907C241.217 351.907 240.037 353.081 240.037 354.529C240.037 355.976 241.217 357.151 242.671 357.151Z" fill="#442F2F"/>
<path opacity="0.6" d="M236.145 336.405C237.599 336.405 238.778 335.231 238.778 333.783C238.778 332.336 237.599 331.162 236.145 331.162C234.691 331.162 233.512 332.336 233.512 333.783C233.512 335.231 234.691 336.405 236.145 336.405Z" fill="#442F2F"/>
<path opacity="0.6" d="M251.256 342.788C252.71 342.788 253.889 341.614 253.889 340.167C253.889 338.719 252.71 337.545 251.256 337.545C249.803 337.545 248.623 338.719 248.623 340.167C248.623 341.614 249.803 342.788 251.256 342.788Z" fill="#442F2F"/>
<path opacity="0.6" d="M292.469 350.653C293.923 350.653 295.102 349.479 295.102 348.032C295.102 346.584 293.923 345.41 292.469 345.41C291.015 345.41 289.836 346.584 289.836 348.032C289.836 349.479 291.015 350.653 292.469 350.653Z" fill="#442F2F"/>
<path opacity="0.6" d="M340.893 345.41C342.347 345.41 343.526 344.236 343.526 342.788C343.526 341.341 342.347 340.167 340.893 340.167C339.439 340.167 338.26 341.341 338.26 342.788C338.26 344.236 339.439 345.41 340.893 345.41Z" fill="#442F2F"/>
<path opacity="0.6" d="M524.288 357.151C525.742 357.151 526.921 355.976 526.921 354.529C526.921 353.081 525.742 351.907 524.288 351.907C522.834 351.907 521.655 353.081 521.655 354.529C521.655 355.976 522.834 357.151 524.288 357.151Z" fill="#442F2F"/>
<path opacity="0.6" d="M508.032 357.151C509.486 357.151 510.665 355.976 510.665 354.529C510.665 353.081 509.486 351.907 508.032 351.907C506.578 351.907 505.399 353.081 505.399 354.529C505.399 355.976 506.578 357.151 508.032 357.151Z" fill="#442F2F"/>
<path opacity="0.6" d="M497.958 357.151C499.412 357.151 500.591 355.976 500.591 354.529C500.591 353.081 499.412 351.907 497.958 351.907C496.504 351.907 495.325 353.081 495.325 354.529C495.325 355.976 496.504 357.151 497.958 357.151Z" fill="#442F2F"/>
<path opacity="0.6" d="M503.224 350.653C504.678 350.653 505.857 349.479 505.857 348.032C505.857 346.584 504.678 345.41 503.224 345.41C501.77 345.41 500.591 346.584 500.591 348.032C500.591 349.479 501.77 350.653 503.224 350.653Z" fill="#442F2F"/>
<path opacity="0.6" d="M551.649 336.405C553.103 336.405 554.282 335.231 554.282 333.783C554.282 332.336 553.103 331.162 551.649 331.162C550.195 331.162 549.016 332.336 549.016 333.783C549.016 335.231 550.195 336.405 551.649 336.405Z" fill="#442F2F"/>
<path opacity="0.6" d="M549.016 350.653C550.47 350.653 551.649 349.479 551.649 348.032C551.649 346.584 550.47 345.41 549.016 345.41C547.562 345.41 546.383 346.584 546.383 348.032C546.383 349.479 547.562 350.653 549.016 350.653Z" fill="#442F2F"/>
<path opacity="0.6" d="M526.921 333.783C528.375 333.783 529.554 332.609 529.554 331.162C529.554 329.714 528.375 328.54 526.921 328.54C525.468 328.54 524.288 329.714 524.288 331.162C524.288 332.609 525.468 333.783 526.921 333.783Z" fill="#442F2F"/>
<path opacity="0.6" d="M432.705 357.151C434.159 357.151 435.338 355.976 435.338 354.529C435.338 353.081 434.159 351.907 432.705 351.907C431.251 351.907 430.072 353.081 430.072 354.529C430.072 355.976 431.251 357.151 432.705 357.151Z" fill="#442F2F"/>
<path opacity="0.6" d="M409.237 357.151C410.691 357.151 411.87 355.976 411.87 354.529C411.87 353.081 410.691 351.907 409.237 351.907C407.783 351.907 406.604 353.081 406.604 354.529C406.604 355.976 407.783 357.151 409.237 357.151Z" fill="#442F2F"/>
<path opacity="0.6" d="M418.51 357.151C419.964 357.151 421.143 355.976 421.143 354.529C421.143 353.081 419.964 351.907 418.51 351.907C417.056 351.907 415.877 353.081 415.877 354.529C415.877 355.976 417.056 357.151 418.51 357.151Z" fill="#442F2F"/>
<path opacity="0.6" d="M383.25 357.151C384.704 357.151 385.883 355.976 385.883 354.529C385.883 353.081 384.704 351.907 383.25 351.907C381.797 351.907 380.617 353.081 380.617 354.529C380.617 355.976 381.797 357.151 383.25 357.151Z" fill="#442F2F"/>
<path opacity="0.6" d="M372.032 353.161C373.485 353.161 374.665 351.987 374.665 350.539C374.665 349.092 373.485 347.918 372.032 347.918C370.578 347.918 369.399 349.092 369.399 350.539C369.399 351.987 370.578 353.161 372.032 353.161Z" fill="#442F2F"/>
<path opacity="0.6" d="M337.23 355.783C338.684 355.783 339.863 354.609 339.863 353.161C339.863 351.713 338.684 350.539 337.23 350.539C335.776 350.539 334.597 351.713 334.597 353.161C334.597 354.609 335.776 355.783 337.23 355.783Z" fill="#442F2F"/>
</g>
<g opacity="0.15">
<path opacity="0.15" d="M289.263 350.995V316.799C289.263 305.743 298.307 296.738 309.412 296.738H254.004C233.398 296.738 216.684 313.38 216.684 333.897C216.684 354.415 233.398 371.057 254.004 371.057H309.526C298.307 371.057 289.263 362.052 289.263 350.995Z" fill="#5B3E40"/>
<path opacity="0.15" d="M538.942 302.437H254.118C233.512 302.437 216.798 319.079 216.798 339.597C216.798 340.167 216.798 340.623 216.798 341.192C225.155 339.141 236.26 337.203 247.25 337.203C258.469 337.203 263.62 339.141 269.688 341.42C276.098 343.814 283.31 346.436 296.933 346.436C310.556 346.436 317.769 343.7 324.179 341.42C330.247 339.141 335.398 337.203 346.617 337.203C357.836 337.203 362.988 339.141 369.055 341.42C375.466 343.814 382.678 346.436 396.301 346.436C409.924 346.436 417.136 343.7 423.547 341.306C429.614 339.027 434.766 337.089 445.985 337.089C457.204 337.089 462.355 339.027 468.423 341.306C474.834 343.7 482.046 346.436 495.669 346.436C509.292 346.436 516.504 343.7 522.915 341.306C528.982 339.027 534.134 337.089 545.352 337.089C556.457 337.089 561.608 339.027 567.561 341.306C570.08 342.218 572.942 343.358 576.262 344.156C576.491 342.674 576.605 341.078 576.605 339.483C576.376 319.079 559.662 302.437 538.942 302.437Z" fill="#5B3E40"/>
</g>
<path d="M575.235 334.629C575.235 355.626 558.619 372.657 538.134 372.657H254.866C234.381 372.657 217.765 355.626 217.765 334.629C217.765 313.631 234.381 296.6 254.866 296.6H538.134C558.619 296.6 575.235 313.631 575.235 334.629Z" stroke="#442F2F" stroke-width="8" stroke-miterlimit="10" stroke-linecap="round" stroke-linejoin="round"/>
<path d="M568.294 288.648C568.294 293.066 564.653 296.6 560.103 296.6H232.897C228.347 296.6 224.706 293.066 224.706 288.648V269.981C224.706 265.563 228.347 262.029 232.897 262.029H559.989C564.54 262.029 568.18 265.563 568.18 269.981V288.648H568.294Z" fill="#D83634"/>
<path d="M568.294 288.648C568.294 293.066 564.653 296.6 560.103 296.6H232.897C228.347 296.6 224.706 293.066 224.706 288.648V269.981C224.706 265.563 228.347 262.029 232.897 262.029H559.989C564.54 262.029 568.18 265.563 568.18 269.981V288.648H568.294Z" fill="#D83634"/>
<path opacity="0.3" d="M286.07 288.646V269.981C286.07 265.563 289.647 262.029 294.118 262.029H232.754C228.283 262.029 224.706 265.563 224.706 269.981V288.646C224.706 293.063 228.283 296.598 232.754 296.598H294.118C289.647 296.708 286.07 293.063 286.07 288.646Z" fill="#D83634"/>
<path d="M568.294 288.648C568.294 293.066 564.653 296.6 560.103 296.6H232.897C228.347 296.6 224.706 293.066 224.706 288.648V269.981C224.706 265.563 228.347 262.029 232.897 262.029H559.989C564.54 262.029 568.18 265.563 568.18 269.981V288.648H568.294Z" stroke="#442F2F" stroke-width="8" stroke-miterlimit="10" stroke-linecap="round" stroke-linejoin="round"/>
<path d="M196.941 286.229C209.935 259.078 242.361 241.286 278.466 241.286H514.534C550.639 241.286 582.95 259.194 596.059 286.229C571.107 286.229 571.107 263.93 546.155 263.93C521.203 263.93 521.203 286.229 496.251 286.229C471.299 286.229 471.299 263.93 446.347 263.93C421.395 263.93 421.395 286.229 396.442 286.229C371.49 286.229 371.49 263.93 346.538 263.93C321.586 263.93 321.586 286.229 296.634 286.229C271.682 286.229 271.682 263.93 246.73 263.93C221.778 263.93 221.893 286.229 196.941 286.229Z" fill="#8DC838"/>
<path d="M550.941 247.989C537.136 240.942 531.843 241.288 514.701 241.288H303.475H297.722H278.51C242.385 241.288 210.057 259.195 196.941 286.229C221.906 286.229 221.906 263.932 246.872 263.932C262.863 263.932 275.633 277.333 284.262 283.918L287.023 280.799C292.2 274.907 296.227 268.091 298.988 260.813C301.979 253.188 309.227 248.105 317.396 248.105L550.941 247.989Z" fill="#73B727"/>
<path d="M196.941 286.229C209.935 259.078 242.361 241.286 278.466 241.286H514.534C550.639 241.286 582.95 259.194 596.059 286.229C571.107 286.229 571.107 263.93 546.155 263.93C521.203 263.93 521.203 286.229 496.251 286.229C471.299 286.229 471.299 263.93 446.347 263.93C421.395 263.93 421.395 286.229 396.442 286.229C371.49 286.229 371.49 263.93 346.538 263.93C321.586 263.93 321.586 286.229 296.634 286.229C271.682 286.229 271.682 263.93 246.73 263.93C221.778 263.93 221.893 286.229 196.941 286.229Z" stroke="#442F2F" stroke-width="8" stroke-miterlimit="10" stroke-linecap="round" stroke-linejoin="round"/>
<path d="M200.554 322.301C199.411 327.651 205.355 332.186 211.414 330.558C220.902 328 234.163 325.209 247.424 325.209C272.23 325.209 272.23 334.629 297.037 334.629C321.844 334.629 321.844 325.209 346.65 325.209C371.457 325.209 371.457 334.629 396.264 334.629C421.07 334.629 421.07 325.209 445.877 325.209C470.684 325.209 470.684 334.629 495.49 334.629C520.297 334.629 520.297 325.209 544.989 325.209C564.995 325.209 568.539 331.372 582.485 333.698C588.315 334.745 593.574 330.209 592.431 325.209L591.402 322.999C583.971 307.067 565.909 296.6 545.904 296.6H245.709C226.046 296.833 208.327 306.834 200.554 322.301Z" fill="#FBB03B"/>
<path d="M575.235 304.834C566.996 299.658 556.925 296.6 546.167 296.6H303.437H294.968H287.644H245.758C226.075 296.6 208.222 306.717 200.554 322.479C199.41 327.891 205.361 332.478 211.426 330.831C220.925 328.244 234.2 325.42 247.475 325.42C259.606 325.42 265.786 327.655 271.851 330.008L274.14 328.126C277.344 325.538 281.006 321.068 284.096 316.715C289.475 309.187 298.058 304.834 307.099 304.834H575.235Z" fill="#F99A29"/>
<path d="M200.554 322.301C199.411 327.651 205.355 332.186 211.414 330.558C220.902 328 234.163 325.209 247.424 325.209C272.23 325.209 272.23 334.629 297.037 334.629C321.844 334.629 321.844 325.209 346.65 325.209C371.457 325.209 371.457 334.629 396.264 334.629C421.07 334.629 421.07 325.209 445.877 325.209C470.684 325.209 470.684 334.629 495.49 334.629C520.297 334.629 520.297 325.209 544.989 325.209C564.995 325.209 568.539 331.372 582.485 333.698C588.315 334.745 593.574 330.209 592.431 325.209L591.402 322.999C583.971 307.067 565.909 296.6 545.904 296.6H245.709C226.046 296.833 208.327 306.834 200.554 322.301Z" stroke="#442F2F" stroke-width="8" stroke-miterlimit="10" stroke-linecap="round" stroke-linejoin="round"/>
<path d="M302.847 424.514C296.153 424.514 290.647 419.009 290.647 412.073V372.657H314.94V412.073C315.048 418.899 309.541 424.514 302.847 424.514Z" stroke="#442F2F" stroke-width="8" stroke-miterlimit="10" stroke-linecap="round" stroke-linejoin="round"/>
<path d="M302.847 424.514C296.153 424.514 290.647 419.009 290.647 412.073V372.657H314.94V412.073C315.048 418.899 309.541 424.514 302.847 424.514Z" fill="#D83634"/>
<path d="M346.233 400.314C340.481 400.314 335.765 395.667 335.765 389.999V372.657H356.586V389.999C356.701 395.78 351.985 400.314 346.233 400.314Z" fill="#D83634"/>
<path d="M346.233 400.314C340.481 400.314 335.765 395.667 335.765 389.999V372.657H356.586V389.999C356.701 395.78 351.985 400.314 346.233 400.314Z" stroke="#442F2F" stroke-width="8" stroke-miterlimit="10" stroke-linecap="round" stroke-linejoin="round"/>
<path d="M302.847 424.514C296.153 424.514 290.647 419.009 290.647 412.073V372.657H314.94V412.073C315.048 418.899 309.541 424.514 302.847 424.514Z" stroke="#442F2F" stroke-width="8" stroke-miterlimit="10" stroke-linecap="round" stroke-linejoin="round"/>
<path d="M472.853 431.429C462.349 431.429 453.765 423.142 453.765 413.001V372.657H491.941V413.001C491.941 423.251 483.47 431.429 472.853 431.429Z" fill="#D83634"/>
<path d="M472.853 431.429C462.349 431.429 453.765 423.142 453.765 413.001V372.657H491.941V413.001C491.941 423.251 483.47 431.429 472.853 431.429Z" stroke="#442F2F" stroke-width="8" stroke-miterlimit="10" stroke-linecap="round" stroke-linejoin="round"/>
<path d="M273.294 410.686C275.211 410.686 276.765 409.138 276.765 407.229C276.765 405.319 275.211 403.771 273.294 403.771C271.378 403.771 269.823 405.319 269.823 407.229C269.823 409.138 271.378 410.686 273.294 410.686Z" fill="#442F2F"/>
<path d="M507.559 434.886C508.518 434.886 509.294 434.112 509.294 433.157C509.294 432.202 508.518 431.429 507.559 431.429C506.6 431.429 505.823 432.202 505.823 433.157C505.823 434.112 506.6 434.886 507.559 434.886Z" fill="#442F2F"/>
<path d="M393.029 431.429C393.988 431.429 394.765 430.654 394.765 429.7C394.765 428.746 393.988 427.971 393.029 427.971C392.071 427.971 391.294 428.746 391.294 429.7C391.294 430.654 392.071 431.429 393.029 431.429Z" fill="#442F2F"/>
<path d="M377.412 407.229C379.329 407.229 380.882 405.681 380.882 403.771C380.882 401.862 379.329 400.314 377.412 400.314C375.495 400.314 373.941 401.862 373.941 403.771C373.941 405.681 375.495 407.229 377.412 407.229Z" fill="#442F2F"/>
<path d="M347.912 427.971C348.871 427.971 349.647 427.197 349.647 426.243C349.647 425.289 348.871 424.514 347.912 424.514C346.954 424.514 346.177 425.289 346.177 426.243C346.177 427.197 346.954 427.971 347.912 427.971Z" fill="#442F2F"/>
<path d="M426 421.057C429.834 421.057 432.941 417.962 432.941 414.143C432.941 410.324 429.834 407.229 426 407.229C422.166 407.229 419.059 410.324 419.059 414.143C419.059 417.962 422.166 421.057 426 421.057Z" fill="#442F2F"/>
<path d="M512.765 407.229C514.681 407.229 516.235 406.454 516.235 405.5C516.235 404.545 514.681 403.771 512.765 403.771C510.849 403.771 509.294 404.545 509.294 405.5C509.294 406.454 510.849 407.229 512.765 407.229Z" fill="#442F2F"/>
<path d="M406.912 400.314C407.87 400.314 408.647 399.54 408.647 398.586C408.647 397.631 407.87 396.857 406.912 396.857C405.953 396.857 405.177 397.631 405.177 398.586C405.177 399.54 405.953 400.314 406.912 400.314Z" fill="#442F2F"/>
<path d="M313.206 165.229C316.081 165.229 318.412 163.681 318.412 161.771C318.412 159.862 316.081 158.314 313.206 158.314C310.331 158.314 308 159.862 308 161.771C308 163.681 310.331 165.229 313.206 165.229Z" fill="#442F2F"/>
<path d="M382.618 182.514C385.493 182.514 387.824 180.193 387.824 177.329C387.824 174.464 385.493 172.143 382.618 172.143C379.742 172.143 377.412 174.464 377.412 177.329C377.412 180.193 379.742 182.514 382.618 182.514Z" fill="#442F2F"/>
<path d="M408.647 196.343C410.565 196.343 412.118 195.569 412.118 194.614C412.118 193.66 410.565 192.886 408.647 192.886C406.73 192.886 405.177 193.66 405.177 194.614C405.177 195.569 406.73 196.343 408.647 196.343Z" fill="#442F2F"/>
<path d="M488.471 168.686C490.388 168.686 491.941 167.138 491.941 165.229C491.941 163.319 490.388 161.771 488.471 161.771C486.554 161.771 485 163.319 485 165.229C485 167.138 486.554 168.686 488.471 168.686Z" fill="#442F2F"/>
<path d="M405.177 144.486C409.01 144.486 412.118 141.39 412.118 137.571C412.118 133.753 409.01 130.657 405.177 130.657C401.343 130.657 398.235 133.753 398.235 137.571C398.235 141.39 401.343 144.486 405.177 144.486Z" fill="#442F2F"/>
<path d="M458.971 158.314C461.846 158.314 464.176 155.993 464.176 153.129C464.176 150.264 461.846 147.943 458.971 147.943C456.095 147.943 453.765 150.264 453.765 153.129C453.765 155.993 456.095 158.314 458.971 158.314Z" fill="#442F2F"/>
<path d="M342.706 182.514C344.623 182.514 346.177 180.967 346.177 179.057C346.177 177.149 344.623 175.6 342.706 175.6C340.79 175.6 339.235 177.149 339.235 179.057C339.235 180.967 340.79 182.514 342.706 182.514Z" fill="#442F2F"/>
<path d="M427.735 172.143C430.61 172.143 432.941 169.821 432.941 166.957C432.941 164.093 430.61 161.771 427.735 161.771C424.86 161.771 422.529 164.093 422.529 166.957C422.529 169.821 424.86 172.143 427.735 172.143Z" fill="#442F2F"/>
<path d="M375.676 151.4C376.634 151.4 377.412 150.627 377.412 149.671C377.412 148.717 376.634 147.943 375.676 147.943C374.719 147.943 373.941 148.717 373.941 149.671C373.941 150.627 374.719 151.4 375.676 151.4Z" fill="#442F2F"/>
<path d="M323.618 199.8C324.576 199.8 325.353 199.027 325.353 198.071C325.353 197.117 324.576 196.343 323.618 196.343C322.66 196.343 321.882 197.117 321.882 198.071C321.882 199.027 322.66 199.8 323.618 199.8Z" fill="#442F2F"/>
<path d="M511.029 172.143C511.988 172.143 512.765 171.369 512.765 170.414C512.765 169.459 511.988 168.686 511.029 168.686C510.071 168.686 509.294 169.459 509.294 170.414C509.294 171.369 510.071 172.143 511.029 172.143Z" fill="#442F2F"/>
<path d="M347.912 147.943C348.87 147.943 349.647 147.17 349.647 146.214C349.647 145.26 348.87 144.486 347.912 144.486C346.954 144.486 346.177 145.26 346.177 146.214C346.177 147.17 346.954 147.943 347.912 147.943Z" fill="#442F2F"/>
<path d="M476.324 196.343C477.281 196.343 478.059 195.57 478.059 194.614C478.059 193.66 477.281 192.886 476.324 192.886C475.366 192.886 474.588 193.66 474.588 194.614C474.588 195.57 475.366 196.343 476.324 196.343Z" fill="#442F2F"/>
<path d="M448.559 179.057C449.518 179.057 450.294 178.284 450.294 177.329C450.294 176.374 449.518 175.6 448.559 175.6C447.6 175.6 446.823 176.374 446.823 177.329C446.823 178.284 447.6 179.057 448.559 179.057Z" fill="#442F2F"/>
<path d="M235.118 130.657L242.059 137.571" stroke="#F7931E" stroke-width="8" stroke-miterlimit="10" stroke-linecap="round" stroke-linejoin="round"/>
<path d="M245.529 116.829L252.471 130.657" stroke="#F7931E" stroke-width="8" stroke-miterlimit="10" stroke-linecap="round" stroke-linejoin="round"/>
<path d="M262.882 109.914V127.2" stroke="#F7931E" stroke-width="8" stroke-miterlimit="10" stroke-linecap="round" stroke-linejoin="round"/>
<path d="M121.138 511.919V532.373H114.321C113.861 531.787 113.333 531.188 112.738 530.575C112.143 529.963 111.48 529.417 110.749 528.937C110.019 528.431 109.221 528.032 108.355 527.739C107.489 527.419 106.556 527.259 105.555 527.259V554.944L110.749 555.943V573.281H74.3888V555.943L79.5832 554.944V527.259C78.5822 527.259 77.6488 527.419 76.7831 527.739C75.9173 528.032 75.1192 528.431 74.3888 528.937C73.6583 529.417 72.9955 529.963 72.4003 530.575C71.8051 531.188 71.2775 531.787 70.8176 532.373H64V511.919H121.138Z" fill="#F6F6F6"/>
<path d="M126.738 511.919H163.099V529.337L157.905 530.335V537.886H178.682V530.335L173.488 529.337V511.919H209.849V529.337L204.654 530.335V554.944L209.849 555.943V573.281H173.488V555.943L178.682 554.944V546.914H157.905V554.944L163.099 555.943V573.281H126.738V555.943L131.933 554.944V530.335L126.738 529.337V511.919Z" fill="#F6F6F6"/>
<path d="M249.293 557.94C251.133 557.94 252.865 557.794 254.488 557.501C256.111 557.181 257.599 556.782 258.952 556.302C260.332 555.823 261.576 555.277 262.685 554.665C263.794 554.052 264.768 553.439 265.607 552.827H272.384V573.281H218.127V555.943L223.322 554.944V530.335L218.127 529.337V511.919H272.384V532.373H265.851C264.985 531.787 263.984 531.188 262.848 530.575C261.711 529.963 260.44 529.417 259.033 528.937C257.653 528.431 256.152 528.032 254.528 527.739C252.905 527.419 251.16 527.259 249.293 527.259V538.166L261.468 535.569V549.711L249.293 547.114V557.94Z" fill="#F6F6F6"/>
<path d="M355.657 511.919C359.931 512.931 363.11 514.595 365.193 516.912C367.303 519.23 368.358 522.346 368.358 526.261C368.358 528.871 368.074 531.068 367.506 532.852C366.938 534.61 366.221 536.075 365.355 537.247C364.49 538.392 363.543 539.284 362.515 539.923C361.514 540.536 360.58 540.989 359.715 541.282C358.849 541.575 358.105 541.748 357.483 541.801C356.888 541.854 356.576 541.881 356.549 541.881C357.604 541.934 358.727 542.054 359.918 542.24C361.135 542.427 362.339 542.72 363.529 543.119C364.72 543.519 365.856 544.038 366.938 544.677C368.02 545.316 368.967 546.115 369.779 547.074C370.618 548.006 371.28 549.125 371.767 550.43C372.254 551.735 372.498 553.24 372.498 554.944C372.498 557.554 372.16 559.978 371.483 562.215C370.834 564.452 369.671 566.396 367.993 568.048C366.343 569.672 364.084 570.951 361.216 571.883C358.348 572.815 354.723 573.281 350.34 573.281H303.226V555.943L308.42 554.944V528.777L303.226 527.779V511.919H355.657ZM346.526 531.574C346.526 530.216 346.282 529.177 345.795 528.458C345.335 527.712 344.713 527.166 343.929 526.82C343.144 526.474 342.251 526.274 341.25 526.221C340.249 526.167 339.235 526.141 338.207 526.141H334.392V537.606H338.207C339.235 537.606 340.249 537.58 341.25 537.526C342.251 537.446 343.144 537.22 343.929 536.847C344.713 536.474 345.335 535.888 345.795 535.089C346.282 534.264 346.526 533.092 346.526 531.574ZM346.526 551.509C346.526 550.15 346.282 549.112 345.795 548.393C345.335 547.673 344.713 547.141 343.929 546.795C343.144 546.448 342.251 546.249 341.25 546.195C340.249 546.142 339.235 546.115 338.207 546.115H334.392V557.581H338.207C339.235 557.581 340.249 557.554 341.25 557.501C342.251 557.421 343.144 557.195 343.929 556.822C344.713 556.449 345.335 555.85 345.795 555.024C346.282 554.198 346.526 553.027 346.526 551.509Z" fill="#F6F6F6"/>
<path d="M444.732 530.256C444.705 531.108 444.692 531.947 444.692 532.772C444.692 533.571 444.692 534.357 444.692 535.129V541.881C444.692 547.527 443.907 552.401 442.338 556.502C440.796 560.577 438.672 563.946 435.967 566.609C433.288 569.246 430.15 571.137 426.552 572.282C422.954 573.427 419.125 574 415.067 574C411.902 574 408.858 573.787 405.937 573.361C403.042 572.961 400.336 572.202 397.82 571.084C395.304 569.938 393.018 568.5 390.962 566.769C388.906 565.011 387.134 562.934 385.646 560.537C384.185 558.114 383.049 555.357 382.237 552.268C381.453 549.178 381.06 545.716 381.06 541.881V530.256L375.866 529.257V511.919H409.589V529.257L404.395 530.256V535.409C404.395 536.075 404.395 536.754 404.395 537.446C404.395 538.112 404.395 538.738 404.395 539.324C404.422 539.91 404.435 540.429 404.435 540.882C404.435 541.335 404.435 541.668 404.435 541.881C404.435 542.547 404.449 543.319 404.476 544.198C404.503 545.077 404.611 545.996 404.8 546.954C405.017 547.886 405.328 548.819 405.734 549.751C406.14 550.683 406.721 551.522 407.479 552.268C408.263 552.987 409.237 553.573 410.401 554.025C411.591 554.478 413.052 554.705 414.783 554.705C416.515 554.705 417.962 554.478 419.125 554.025C420.316 553.573 421.303 552.987 422.088 552.268C422.872 551.522 423.468 550.683 423.873 549.751C424.306 548.819 424.617 547.886 424.807 546.954C424.996 545.996 425.104 545.077 425.131 544.198C425.186 543.319 425.213 542.547 425.213 541.881C425.213 541.668 425.213 541.335 425.213 540.882C425.213 540.429 425.199 539.91 425.172 539.324C425.172 538.738 425.172 538.112 425.172 537.446C425.172 536.754 425.172 536.075 425.172 535.409V530.256L419.978 529.257V511.919H449.927V529.257L444.732 530.256Z" fill="#F6F6F6"/>
<path d="M524.149 573.281H498.34C497.528 571.763 496.69 570.152 495.824 568.447C494.958 566.743 494.119 564.971 493.308 563.134C492.496 561.296 491.739 559.392 491.035 557.421C490.332 555.45 489.737 553.426 489.25 551.349H487.829V573.281H456.663V555.943L461.857 554.944V530.256L456.663 529.257V511.919H492.009C496.69 511.919 500.734 512.132 504.143 512.558C507.552 512.984 510.447 513.597 512.827 514.396C515.208 515.168 517.129 516.127 518.59 517.272C520.078 518.391 521.228 519.669 522.039 521.107C522.878 522.519 523.433 524.077 523.703 525.781C524.001 527.459 524.149 529.244 524.149 531.134C524.149 533.052 523.96 534.796 523.581 536.368C523.23 537.912 522.594 539.337 521.674 540.642C520.754 541.947 519.496 543.146 517.9 544.238C516.304 545.303 514.275 546.315 511.813 547.274C512.327 548.339 513.098 549.591 514.126 551.029C515.154 552.441 516.263 553.892 517.454 555.384C518.644 556.848 519.834 558.287 521.025 559.698C522.242 561.083 523.284 562.268 524.149 563.254V573.281ZM487.829 539.564C489.398 539.564 490.819 539.497 492.09 539.364C493.389 539.231 494.485 538.925 495.377 538.445C496.297 537.966 497.001 537.26 497.488 536.328C497.975 535.396 498.218 534.144 498.218 532.573C498.218 531.028 497.975 529.803 497.488 528.897C497.001 527.965 496.297 527.246 495.377 526.74C494.485 526.234 493.389 525.901 492.09 525.741C490.819 525.581 489.398 525.502 487.829 525.502V539.564Z" fill="#F6F6F6"/>
<path d="M529.831 541.881C529.831 536.315 530.642 531.614 532.266 527.779C533.916 523.944 536.256 520.801 539.286 518.351C542.181 516.007 545.576 514.196 549.472 512.918C553.368 511.639 557.845 511 562.904 511C566.394 511 569.492 511.146 572.198 511.439C574.903 511.732 577.311 512.119 579.421 512.598C581.558 513.077 583.452 513.623 585.102 514.236C586.78 514.848 588.335 515.488 589.769 516.153V534.41H577.554C576.174 532.493 574.632 531.081 572.928 530.176C571.251 529.27 569.519 528.817 567.734 528.817C566.219 528.817 564.744 529.11 563.31 529.696C561.903 530.282 560.645 531.134 559.536 532.253C558.427 533.372 557.534 534.743 556.858 536.368C556.181 537.966 555.843 539.803 555.843 541.881C555.843 546.488 556.898 549.857 559.009 551.988C561.146 554.119 564.176 555.184 568.099 555.184C569.073 555.184 570.047 555.131 571.021 555.024C572.022 554.918 573.023 554.758 574.024 554.545V549.711H566.232V538.765H591.474V567.928C589.336 568.807 587.064 569.646 584.656 570.445C582.275 571.217 579.881 571.896 577.473 572.482C575.092 573.041 572.752 573.427 570.453 573.64C568.153 573.88 566.029 574 564.081 574C560.889 574 557.832 573.774 554.91 573.321C551.988 572.868 549.256 572.056 546.713 570.884C544.197 569.712 541.897 568.247 539.814 566.49C537.731 564.705 535.945 562.614 534.457 560.218C532.996 557.794 531.86 555.064 531.048 552.028C530.237 548.965 529.831 545.583 529.831 541.881Z" fill="#F6F6F6"/>
<path d="M629.052 557.94C630.891 557.94 632.623 557.794 634.246 557.501C635.869 557.181 637.357 556.782 638.71 556.302C640.09 555.823 641.334 555.277 642.443 554.665C643.553 554.052 644.527 553.439 645.365 552.827H652.142V573.281H597.885V555.943L603.08 554.944V530.335L597.885 529.337V511.919H652.142V532.373H645.609C644.743 531.787 643.742 531.188 642.606 530.575C641.47 529.963 640.198 529.417 638.791 528.937C637.411 528.431 635.91 528.032 634.287 527.739C632.663 527.419 630.918 527.259 629.052 527.259V538.166L641.226 535.569V549.711L629.052 547.114V557.94Z" fill="#F6F6F6"/>
<path d="M726 573.281H700.19C699.379 571.763 698.54 570.152 697.674 568.447C696.809 566.743 695.97 564.971 695.158 563.134C694.347 561.296 693.589 559.392 692.886 557.421C692.182 555.45 691.587 553.426 691.1 551.349H689.68V573.281H658.514V555.943L663.708 554.944V530.256L658.514 529.257V511.919H693.86C698.54 511.919 702.585 512.132 705.994 512.558C709.402 512.984 712.297 513.597 714.678 514.396C717.059 515.168 718.979 516.127 720.44 517.272C721.928 518.391 723.078 519.669 723.89 521.107C724.728 522.519 725.283 524.077 725.554 525.781C725.851 527.459 726 529.244 726 531.134C726 533.052 725.811 534.796 725.432 536.368C725.08 537.912 724.444 539.337 723.525 540.642C722.605 541.947 721.347 543.146 719.751 544.238C718.154 545.303 716.125 546.315 713.663 547.274C714.177 548.339 714.948 549.591 715.976 551.029C717.005 552.441 718.114 553.892 719.304 555.384C720.495 556.848 721.685 558.287 722.875 559.698C724.093 561.083 725.134 562.268 726 563.254V573.281ZM689.68 539.564C691.249 539.564 692.669 539.497 693.941 539.364C695.24 539.231 696.335 538.925 697.228 538.445C698.148 537.966 698.851 537.26 699.338 536.328C699.825 535.396 700.069 534.144 700.069 532.573C700.069 531.028 699.825 529.803 699.338 528.897C698.851 527.965 698.148 527.246 697.228 526.74C696.335 526.234 695.24 525.901 693.941 525.741C692.669 525.581 691.249 525.502 689.68 525.502V539.564Z" fill="#F6F6F6"/>
</svg>
